<svg xmlns="http://www.w3.org/2000/svg" xmlns:xlink="http://www.w3.org/1999/xlink" id="Capa_1" x="0px" y="0px" viewBox="0 0 401 253" style="enable-background:new 0 0 401 253;" xml:space="preserve"><style type="text/css">	.st0{fill:#3F334D;}	.st1{fill:#F7F1CE;}</style><g><polygon class="st0" points="297.48,15.68 297.48,36.51 330.49,36.51 330.49,148.87 355.66,148.87 355.66,36.51 390,36.51   390,15.68  "></polygon><rect x="75.07" y="62.53" class="st1" width="23.42" height="87.61"></rect><path class="st1" d="M39.73,151.83c7.92,0,15.84-1.68,21.06-4.21l-2.19-19.71c-3.71,2.02-9.44,3.37-14.49,3.37  c-6.91,0-9.27-4.04-9.27-11.12V15.68H11.43v104.98C11.43,143.91,24.23,151.83,39.73,151.83z"></path><path class="st1" d="M290.98,150.15h13.95V62.74h-14.96l-3.36,9.58c-7.4-7.23-16.98-11.26-28.07-11.26  c-27.06,0-46.56,19.16-46.56,45.05c0,26.73,19,45.72,47.24,45.72c11.43,0,20.84-4.37,27.9-11.77L290.98,150.15z M281.56,118.88  c-3.7,7.73-12.1,13.11-21.52,13.11c-13.95,0-24.21-11.6-24.21-25.89c0-14.29,10.59-25.22,24.21-25.22  c9.08,0,17.65,5.38,21.52,12.94V118.88z"></path><path class="st1" d="M86.49,53.93c7.06,0,13.13-5.93,13.13-13.27c0-7.06-6.07-12.85-13.13-12.85c-7.34,0-12.99,5.79-12.99,12.85  C73.5,48,79.15,53.93,86.49,53.93z"></path><path class="st1" d="M185.59,138.91c9.92-8.48,15.59-20.9,15.5-33.95c0,0,0-0.01,0-0.01c0-24.45-19.82-44.26-44.27-44.26  c-24.45,0-44.26,19.82-44.26,44.27c-0.08,13.04,5.58,25.46,15.48,33.95c6.17,5.33,9.52,8.22,11.76,10.16h-0.03  c6.15,5.32,3.95,3.44,31.12,26.97c5,4.28,7.87,10.55,7.82,17.14c0,0.23,0,0.47,0,0.7c-0.19,12.19-10.23,21.92-22.43,21.73  c-12.19-0.19-21.92-10.23-21.73-22.43c-0.04-6.61,2.83-12.9,7.85-17.2l1.63-1.54l-14.89-16.32l-1.27,1.1  c-9.92,8.48-15.59,20.9-15.5,33.95c0,0,0,0.01,0,0.01c0,24.45,19.82,44.26,44.27,44.26c24.45,0,44.26-19.82,44.26-44.27  c0.08-13.04-5.58-25.46-15.48-33.95c-5.74-4.96-9.02-7.79-11.26-9.73l3.85-4.03L185.59,138.91z M171.06,122.16l-9.98,8.65  l-4.25,3.63c-3.56-3.09-8.16-7.07-14.25-12.34c-5-4.28-7.87-10.55-7.82-17.14c0-0.23,0-0.47,0-0.7  c0.19-12.19,10.23-21.92,22.43-21.73c12.19,0.19,21.92,10.23,21.73,22.43C178.94,111.57,176.07,117.86,171.06,122.16z"></path></g></svg>