<svg width="10" height="12" viewBox="0 0 10 12" fill="none" xmlns="http://www.w3.org/2000/svg">
<g clip-path="url(#clip0_1200_751)">
<path d="M8.92857 0.75H1.07143C0.787268 0.75 0.514746 0.868526 0.313814 1.0795C0.112882 1.29048 0 1.57663 0 1.875L0 10.125C0 10.4234 0.112882 10.7095 0.313814 10.9205C0.514746 11.1315 0.787268 11.25 1.07143 11.25H4.13504V7.68023H2.72879V6H4.13504V4.71938C4.13504 3.26273 4.96094 2.45812 6.22589 2.45812C6.8317 2.45812 7.46518 2.57156 7.46518 2.57156V4.00125H6.76719C6.07946 4.00125 5.86496 4.44937 5.86496 4.90898V6H7.40022L7.15469 7.68023H5.86496V11.25H8.92857C9.21273 11.25 9.48525 11.1315 9.68619 10.9205C9.88712 10.7095 10 10.4234 10 10.125V1.875C10 1.57663 9.88712 1.29048 9.68619 1.0795C9.48525 0.868526 9.21273 0.75 8.92857 0.75V0.75Z" fill="#FFFFC7"/>
</g>
<defs>
<clipPath id="clip0_1200_751">
<rect width="10" height="12" fill="white"/>
</clipPath>
</defs>
</svg>
