<svg width="14" height="15" viewBox="0 0 14 15" fill="none" xmlns="http://www.w3.org/2000/svg">
<path d="M6.75716 5.70021C5.78835 5.70021 4.99772 6.49084 4.99772 7.45965C4.99772 8.42846 5.78835 9.21908 6.75716 9.21908C7.72597 9.21908 8.51659 8.42846 8.51659 7.45965C8.51659 6.49084 7.72597 5.70021 6.75716 5.70021ZM12.0341 7.45965C12.0341 6.73106 12.0407 6.00907 11.9998 5.2818C11.9589 4.43706 11.7662 3.68736 11.1485 3.06964C10.5294 2.45061 9.78106 2.25922 8.93632 2.2183C8.20773 2.17739 7.48574 2.18399 6.75848 2.18399C6.02989 2.18399 5.3079 2.17739 4.58063 2.2183C3.73589 2.25922 2.98619 2.45193 2.36847 3.06964C1.74944 3.68868 1.55805 4.43706 1.51713 5.2818C1.47621 6.01039 1.48281 6.73238 1.48281 7.45965C1.48281 8.18692 1.47621 8.91022 1.51713 9.63749C1.55805 10.4822 1.75076 11.2319 2.36847 11.8497C2.98751 12.4687 3.73589 12.6601 4.58063 12.701C5.30922 12.7419 6.03121 12.7353 6.75848 12.7353C7.48706 12.7353 8.20905 12.7419 8.93632 12.701C9.78106 12.6601 10.5308 12.4674 11.1485 11.8497C11.7675 11.2306 11.9589 10.4822 11.9998 9.63749C12.0421 8.91022 12.0341 8.18824 12.0341 7.45965V7.45965ZM6.75716 10.1668C5.25906 10.1668 4.05003 8.95774 4.05003 7.45965C4.05003 5.96156 5.25906 4.75252 6.75716 4.75252C8.25525 4.75252 9.46428 5.96156 9.46428 7.45965C9.46428 8.95774 8.25525 10.1668 6.75716 10.1668ZM9.57515 5.27388C9.22538 5.27388 8.94292 4.99142 8.94292 4.64165C8.94292 4.29187 9.22538 4.00942 9.57515 4.00942C9.92493 4.00942 10.2074 4.29187 10.2074 4.64165C10.2075 4.72471 10.1912 4.80697 10.1595 4.88372C10.1277 4.96047 10.0812 5.03021 10.0224 5.08894C9.96371 5.14767 9.89398 5.19424 9.81722 5.22597C9.74047 5.25771 9.65821 5.27399 9.57515 5.27388V5.27388Z" fill="#FFFFC7"/>
</svg>
