<svg width="17" height="12" viewBox="0 0 17 12" fill="none" xmlns="http://www.w3.org/2000/svg">
<path fill-rule="evenodd" clip-rule="evenodd" d="M12.6504 2.12411C12.4882 2.04688 12.326 2.04688 12.1638 2.04688H2.43245C2.27026 2.04688 2.10807 2.04688 1.94588 2.12411L6.4872 5.52237C6.81158 5.75407 7.29815 5.75407 7.70362 5.52237L12.6504 2.12411ZM0.972737 2.89644C0.891642 3.12814 0.810547 3.35984 0.810547 3.59154V8.99787C0.810547 9.84744 1.5404 10.5425 2.43245 10.5425H12.1638C13.0559 10.5425 13.7857 9.84744 13.7857 8.99787V3.59154C13.7857 3.35984 13.7046 3.12814 13.6236 2.89644L8.43348 6.44917C7.62253 6.98981 6.4872 6.98981 5.75734 6.44917L0.972737 2.89644Z" fill="#FFFFC7"/>
</svg>
