<svg width="14" height="15" viewBox="0 0 14 15" fill="none" xmlns="http://www.w3.org/2000/svg">
<path d="M6.75764 5.70021C5.78883 5.70021 4.99821 6.49084 4.99821 7.45965C4.99821 8.42846 5.78883 9.21908 6.75764 9.21908C7.72645 9.21908 8.51708 8.42846 8.51708 7.45965C8.51708 6.49084 7.72645 5.70021 6.75764 5.70021ZM12.0346 7.45965C12.0346 6.73106 12.0412 6.00907 12.0003 5.2818C11.9594 4.43706 11.7667 3.68736 11.149 3.06964C10.5299 2.45061 9.78155 2.25922 8.93681 2.2183C8.20822 2.17739 7.48623 2.18399 6.75896 2.18399C6.03038 2.18399 5.30839 2.17739 4.58112 2.2183C3.73638 2.25922 2.98667 2.45193 2.36896 3.06964C1.74992 3.68868 1.55854 4.43706 1.51762 5.2818C1.4767 6.01039 1.4833 6.73238 1.4833 7.45965C1.4833 8.18692 1.4767 8.91022 1.51762 9.63749C1.55854 10.4822 1.75124 11.2319 2.36896 11.8497C2.98799 12.4687 3.73638 12.6601 4.58112 12.701C5.30971 12.7419 6.0317 12.7353 6.75896 12.7353C7.48755 12.7353 8.20954 12.7419 8.93681 12.701C9.78155 12.6601 10.5313 12.4674 11.149 11.8497C11.768 11.2306 11.9594 10.4822 12.0003 9.63749C12.0425 8.91022 12.0346 8.18824 12.0346 7.45965V7.45965ZM6.75764 10.1668C5.25955 10.1668 4.05052 8.95774 4.05052 7.45965C4.05052 5.96156 5.25955 4.75252 6.75764 4.75252C8.25574 4.75252 9.46477 5.96156 9.46477 7.45965C9.46477 8.95774 8.25574 10.1668 6.75764 10.1668ZM9.57564 5.27388C9.22587 5.27388 8.94341 4.99142 8.94341 4.64165C8.94341 4.29187 9.22587 4.00942 9.57564 4.00942C9.92542 4.00942 10.2079 4.29187 10.2079 4.64165C10.208 4.72471 10.1917 4.80697 10.16 4.88372C10.1282 4.96047 10.0817 5.03021 10.0229 5.08894C9.9642 5.14767 9.89447 5.19424 9.81771 5.22597C9.74096 5.25771 9.6587 5.27399 9.57564 5.27388V5.27388Z" fill="#FFFFC7"/>
</svg>
