<svg width="22" height="22" viewBox="0 0 22 22" fill="none" xmlns="http://www.w3.org/2000/svg">
<path d="M10.9996 10.5404C10.3918 10.5404 9.80887 10.2989 9.3791 9.86915C8.94933 9.43938 8.70789 8.85649 8.70789 8.2487C8.70789 7.64091 8.94933 7.05802 9.3791 6.62824C9.80887 6.19847 10.3918 5.95703 10.9996 5.95703C11.6073 5.95703 12.1902 6.19847 12.62 6.62824C13.0498 7.05802 13.2912 7.64091 13.2912 8.2487C13.2912 8.54964 13.2319 8.84764 13.1168 9.12568C13.0016 9.40372 12.8328 9.65635 12.62 9.86915C12.4072 10.082 12.1546 10.2508 11.8765 10.3659C11.5985 10.4811 11.3005 10.5404 10.9996 10.5404M10.9996 1.83203C9.29775 1.83203 7.66564 2.50807 6.46228 3.71143C5.25893 4.91479 4.58289 6.54689 4.58289 8.2487C4.58289 13.0612 10.9996 20.1654 10.9996 20.1654C10.9996 20.1654 17.4162 13.0612 17.4162 8.2487C17.4162 6.54689 16.7402 4.91479 15.5368 3.71143C14.3335 2.50807 12.7014 1.83203 10.9996 1.83203V1.83203Z" fill="#FFFFC7"/>
</svg>
