<svg width="22" height="22" viewBox="0 0 22 22" fill="none" xmlns="http://www.w3.org/2000/svg">
<path d="M10.9997 10.5404C10.3919 10.5404 9.80899 10.2989 9.37922 9.86915C8.94945 9.43938 8.70801 8.85649 8.70801 8.2487C8.70801 7.64091 8.94945 7.05802 9.37922 6.62824C9.80899 6.19847 10.3919 5.95703 10.9997 5.95703C11.6075 5.95703 12.1904 6.19847 12.6201 6.62824C13.0499 7.05802 13.2913 7.64091 13.2913 8.2487C13.2913 8.54964 13.2321 8.84764 13.1169 9.12568C13.0017 9.40372 12.8329 9.65635 12.6201 9.86915C12.4073 10.082 12.1547 10.2508 11.8767 10.3659C11.5986 10.4811 11.3006 10.5404 10.9997 10.5404M10.9997 1.83203C9.29787 1.83203 7.66576 2.50807 6.46241 3.71143C5.25905 4.91479 4.58301 6.54689 4.58301 8.2487C4.58301 13.0612 10.9997 20.1654 10.9997 20.1654C10.9997 20.1654 17.4163 13.0612 17.4163 8.2487C17.4163 6.54689 16.7403 4.91479 15.5369 3.71143C14.3336 2.50807 12.7015 1.83203 10.9997 1.83203V1.83203Z" fill="#FFFFC7"/>
</svg>
