<svg width="11" height="11" viewBox="0 0 11 11" fill="none" xmlns="http://www.w3.org/2000/svg">
<g clip-path="url(#clip0_1200_1144)">
<path d="M0.918832 10.0846L1.5385 7.80764C1.13019 7.10769 0.915667 6.31163 0.916998 5.5013C0.916998 2.96993 2.96896 0.917969 5.50033 0.917969C8.03171 0.917969 10.0837 2.96993 10.0837 5.5013C10.0837 8.03268 8.03171 10.0846 5.50033 10.0846C4.69036 10.0859 3.89463 9.87159 3.19491 9.46359L0.918832 10.0846ZM3.84621 3.3508C3.78702 3.35448 3.72918 3.37007 3.67617 3.39664C3.62645 3.42479 3.58106 3.45999 3.54141 3.50114C3.48641 3.55293 3.45525 3.59784 3.42179 3.64139C3.2524 3.86184 3.16128 4.13245 3.16283 4.41047C3.16375 4.63505 3.22242 4.85368 3.31408 5.05809C3.50154 5.47151 3.81 5.90922 4.21746 6.31484C4.31554 6.41247 4.41133 6.51055 4.51446 6.60176C5.02018 7.04701 5.62282 7.36811 6.27446 7.53951L6.53525 7.57939C6.62004 7.58397 6.70483 7.57755 6.79008 7.57343C6.92357 7.56654 7.0539 7.53039 7.17187 7.46755C7.23189 7.43664 7.29047 7.40299 7.34742 7.36672C7.34742 7.36672 7.36712 7.35389 7.40471 7.32547C7.46658 7.27964 7.50462 7.24709 7.55596 7.19347C7.594 7.15405 7.627 7.10776 7.65221 7.05505C7.68796 6.98034 7.72371 6.8378 7.73837 6.71909C7.74937 6.62834 7.74616 6.57884 7.74479 6.54814C7.74296 6.49909 7.70217 6.44822 7.65771 6.42668L7.39096 6.30705C7.39096 6.30705 6.99221 6.13334 6.74883 6.02243C6.72317 6.01124 6.69567 6.00487 6.66771 6.00364C6.63635 6.00041 6.60466 6.00394 6.57478 6.01398C6.5449 6.02402 6.51751 6.04034 6.49446 6.06184V6.06093C6.49216 6.06093 6.46146 6.08705 6.13008 6.48855C6.11106 6.51411 6.08486 6.53342 6.05482 6.54404C6.02479 6.55465 5.99227 6.55607 5.96141 6.54814C5.93155 6.54015 5.9023 6.53004 5.87387 6.51789C5.81704 6.49405 5.79733 6.48489 5.75837 6.46793L5.75608 6.46701C5.49387 6.35253 5.2511 6.1979 5.0365 6.00868C4.97875 5.95826 4.92512 5.90326 4.87012 5.85009C4.6898 5.67741 4.53266 5.48206 4.40262 5.26893L4.37558 5.22539C4.35616 5.19613 4.34045 5.16457 4.32883 5.13143C4.31142 5.06405 4.35679 5.00997 4.35679 5.00997C4.35679 5.00997 4.46817 4.88805 4.51996 4.82205C4.56308 4.7672 4.60332 4.71014 4.6405 4.65109C4.69458 4.56401 4.71154 4.47464 4.68312 4.40543C4.55479 4.09193 4.42187 3.7798 4.28529 3.46997C4.25825 3.40855 4.17804 3.36455 4.10517 3.35584C4.08042 3.35309 4.05566 3.35034 4.03091 3.34851C3.96936 3.34545 3.90768 3.34606 3.84621 3.35034V3.3508Z" fill="#FFFFC7"/>
</g>
<defs>
<clipPath id="clip0_1200_1144">
<rect width="11" height="11" fill="white"/>
</clipPath>
</defs>
</svg>
