<svg width="15" height="16" viewBox="0 0 15 16" fill="none" xmlns="http://www.w3.org/2000/svg">
<path d="M13.1719 0.855469C13.5937 0.855469 13.9981 1.02301 14.2964 1.32123C14.5946 1.61945 14.7621 2.02393 14.7621 2.44568V13.5772C14.7621 13.9989 14.5946 14.4034 14.2964 14.7016C13.9981 14.9999 13.5937 15.1674 13.1719 15.1674H2.04041C1.61866 15.1674 1.21418 14.9999 0.915958 14.7016C0.617735 14.4034 0.450195 13.9989 0.450195 13.5772V2.44568C0.450195 2.02393 0.617735 1.61945 0.915958 1.32123C1.21418 1.02301 1.61866 0.855469 2.04041 0.855469H13.1719ZM12.7744 13.1796V8.96556C12.7744 8.27811 12.5013 7.61881 12.0152 7.1327C11.5291 6.6466 10.8698 6.37351 10.1823 6.37351C9.50646 6.37351 8.71931 6.78697 8.33766 7.40715V6.52458H6.11931V13.1796H8.33766V9.25975C8.33766 8.64752 8.83062 8.1466 9.44286 8.1466C9.73808 8.1466 10.0212 8.26388 10.23 8.47263C10.4387 8.68139 10.556 8.96452 10.556 9.25975V13.1796H12.7744ZM3.53521 5.27626C3.88948 5.27626 4.22924 5.13553 4.47975 4.88502C4.73026 4.63452 4.87099 4.29475 4.87099 3.94048C4.87099 3.20103 4.27466 2.59675 3.53521 2.59675C3.17883 2.59675 2.83705 2.73832 2.58505 2.99032C2.33305 3.24232 2.19148 3.5841 2.19148 3.94048C2.19148 4.67993 2.79576 5.27626 3.53521 5.27626M4.64041 13.1796V6.52458H2.43796V13.1796H4.64041V13.1796Z" fill="#FFFFC7"/>
</svg>
