<svg width="15" height="15" viewBox="0 0 15 15" fill="none" xmlns="http://www.w3.org/2000/svg">
<path d="M13.1719 0C13.5937 0 13.9981 0.166168 14.2964 0.461949C14.5946 0.75773 14.7621 1.1589 14.7621 1.57719V12.6175C14.7621 13.0358 14.5946 13.437 14.2964 13.7328C13.9981 14.0286 13.5937 14.1947 13.1719 14.1947H2.04041C1.61866 14.1947 1.21418 14.0286 0.915958 13.7328C0.617735 13.437 0.450195 13.0358 0.450195 12.6175V1.57719C0.450195 1.1589 0.617735 0.75773 0.915958 0.461949C1.21418 0.166168 1.61866 0 2.04041 0H13.1719ZM12.7744 12.2232V8.04368C12.7744 7.36186 12.5013 6.70796 12.0152 6.22584C11.5291 5.74371 10.8698 5.47286 10.1823 5.47286C9.50646 5.47286 8.71931 5.88293 8.33766 6.49803V5.62269H6.11931V12.2232H8.33766V8.33546C8.33766 7.72824 8.83062 7.23143 9.44286 7.23143C9.73808 7.23143 10.0212 7.34775 10.23 7.55479C10.4387 7.76184 10.556 8.04266 10.556 8.33546V12.2232H12.7744ZM3.53521 4.3846C3.88948 4.3846 4.22924 4.24502 4.47975 3.99656C4.73026 3.7481 4.87099 3.41112 4.87099 3.05975C4.87099 2.32636 4.27466 1.72703 3.53521 1.72703C3.17883 1.72703 2.83705 1.86744 2.58505 2.11737C2.33305 2.36731 2.19148 2.70629 2.19148 3.05975C2.19148 3.79315 2.79576 4.3846 3.53521 4.3846M4.64041 12.2232V5.62269H2.43796V12.2232H4.64041V12.2232Z" fill="#FFFFC7"/>
</svg>
