<svg width="18" height="14" viewBox="0 0 18 14" fill="none" xmlns="http://www.w3.org/2000/svg">
<path fill-rule="evenodd" clip-rule="evenodd" d="M16.3245 0.836315C16.1009 0.71875 15.8773 0.71875 15.6537 0.71875H2.23624C2.01261 0.71875 1.78899 0.71875 1.56537 0.836315L7.82683 6.00916C8.27408 6.36185 8.94495 6.36185 9.50401 6.00916L16.3245 0.836315ZM0.223624 2.01196C0.111812 2.36465 0 2.71735 0 3.07004V11.2996C0 12.5928 1.00631 13.6509 2.23624 13.6509H15.6537C16.8836 13.6509 17.8899 12.5928 17.8899 11.2996V3.07004C17.8899 2.71735 17.7781 2.36465 17.6663 2.01196L10.5103 7.41993C9.3922 8.24288 7.82683 8.24288 6.82053 7.41993L0.223624 2.01196Z" fill="#FFFFC7"/>
</svg>
