<svg width="16" height="16" viewBox="0 0 16 16" fill="none" xmlns="http://www.w3.org/2000/svg">
<path d="M7.97923 5.62501C6.66525 5.62501 5.59294 6.69732 5.59294 8.0113C5.59294 9.32528 6.66525 10.3976 7.97923 10.3976C9.29322 10.3976 10.3655 9.32528 10.3655 8.0113C10.3655 6.69732 9.29322 5.62501 7.97923 5.62501ZM15.1363 8.0113C15.1363 7.02313 15.1453 6.0439 15.0898 5.05752C15.0343 3.91182 14.7729 2.895 13.9351 2.0572C13.0955 1.21761 12.0805 0.958041 10.9348 0.902546C9.94663 0.84705 8.96741 0.856001 7.98102 0.856001C6.99285 0.856001 6.01363 0.84705 5.02725 0.902546C3.88154 0.958041 2.86473 1.2194 2.02693 2.0572C1.18734 2.89679 0.927767 3.91182 0.872272 5.05752C0.816777 6.04569 0.825728 7.02492 0.825728 8.0113C0.825728 8.99768 0.816777 9.97869 0.872272 10.9651C0.927767 12.1108 1.18913 13.1276 2.02693 13.9654C2.86652 14.805 3.88154 15.0646 5.02725 15.12C6.01542 15.1755 6.99464 15.1666 7.98102 15.1666C8.9692 15.1666 9.94842 15.1755 10.9348 15.12C12.0805 15.0646 13.0973 14.8032 13.9351 13.9654C14.7747 13.1258 15.0343 12.1108 15.0898 10.9651C15.1471 9.97869 15.1363 8.99947 15.1363 8.0113V8.0113ZM7.97923 11.6829C5.9474 11.6829 4.3076 10.0431 4.3076 8.0113C4.3076 5.97946 5.9474 4.33967 7.97923 4.33967C10.0111 4.33967 11.6509 5.97946 11.6509 8.0113C11.6509 10.0431 10.0111 11.6829 7.97923 11.6829ZM11.8012 5.04678C11.3268 5.04678 10.9438 4.66369 10.9438 4.18929C10.9438 3.7149 11.3268 3.3318 11.8012 3.3318C12.2756 3.3318 12.6587 3.7149 12.6587 4.18929C12.6589 4.30194 12.6368 4.41351 12.5937 4.51761C12.5507 4.62171 12.4875 4.71629 12.4079 4.79594C12.3282 4.8756 12.2337 4.93875 12.1296 4.9818C12.0255 5.02484 11.9139 5.04692 11.8012 5.04678V5.04678Z" fill="#FFFFC7"/>
</svg>
