<svg width="16" height="15" viewBox="0 0 16 15" fill="none" xmlns="http://www.w3.org/2000/svg">
<path d="M7.97923 4.73048C6.66525 4.73048 5.59294 5.79401 5.59294 7.09723C5.59294 8.40046 6.66525 9.46399 7.97923 9.46399C9.29322 9.46399 10.3655 8.40046 10.3655 7.09723C10.3655 5.79401 9.29322 4.73048 7.97923 4.73048ZM15.1363 7.09723C15.1363 6.11715 15.1453 5.14595 15.0898 4.16765C15.0343 3.03132 14.7729 2.02283 13.9351 1.19189C13.0955 0.359181 12.0805 0.101732 10.9348 0.0466913C9.94663 -0.00834945 8.96741 0.000528115 7.98102 0.000528115C6.99285 0.000528115 6.01363 -0.00834945 5.02725 0.0466913C3.88154 0.101732 2.86473 0.360956 2.02693 1.19189C1.18734 2.02461 0.927767 3.03132 0.872272 4.16765C0.816777 5.14773 0.825728 6.11893 0.825728 7.09723C0.825728 8.07554 0.816777 9.04852 0.872272 10.0268C0.927767 11.1631 1.18913 12.1716 2.02693 13.0026C2.86652 13.8353 3.88154 14.0927 5.02725 14.1478C6.01542 14.2028 6.99464 14.1939 7.98102 14.1939C8.9692 14.1939 9.94842 14.2028 10.9348 14.1478C12.0805 14.0927 13.0973 13.8335 13.9351 13.0026C14.7747 12.1699 15.0343 11.1631 15.0898 10.0268C15.1471 9.04852 15.1363 8.07732 15.1363 7.09723V7.09723ZM7.97923 10.7388C5.9474 10.7388 4.3076 9.11244 4.3076 7.09723C4.3076 5.08203 5.9474 3.45567 7.97923 3.45567C10.0111 3.45567 11.6509 5.08203 11.6509 7.09723C11.6509 9.11244 10.0111 10.7388 7.97923 10.7388ZM11.8012 4.15699C11.3268 4.15699 10.9438 3.77703 10.9438 3.30652C10.9438 2.83601 11.3268 2.45606 11.8012 2.45606C12.2756 2.45606 12.6587 2.83601 12.6587 3.30652C12.6589 3.41825 12.6368 3.5289 12.5937 3.63215C12.5507 3.7354 12.4875 3.82921 12.4079 3.90821C12.3282 3.98721 12.2337 4.04985 12.1296 4.09254C12.0255 4.13523 11.9139 4.15713 11.8012 4.15699V4.15699Z" fill="#FFFFC7"/>
</svg>
