<svg width="15" height="15" viewBox="0 0 15 15" fill="none" xmlns="http://www.w3.org/2000/svg">
<path d="M12.9807 0H1.73557C1.32888 0 0.938849 0.160234 0.651277 0.445451C0.363705 0.730668 0.202148 1.11751 0.202148 1.52086L0.202148 12.6739C0.202148 13.0772 0.363705 13.4641 0.651277 13.7493C0.938849 14.0345 1.32888 14.1947 1.73557 14.1947H6.12019V9.36884H4.10758V7.09737H6.12019V5.36612C6.12019 3.39691 7.30221 2.30918 9.1126 2.30918C9.97962 2.30918 10.8863 2.46253 10.8863 2.46253V4.3953H9.8873C8.90303 4.3953 8.59603 5.00111 8.59603 5.62245V7.09737H10.7933L10.4419 9.36884H8.59603V14.1947H12.9807C13.3873 14.1947 13.7774 14.0345 14.0649 13.7493C14.3525 13.4641 14.5141 13.0772 14.5141 12.6739V1.52086C14.5141 1.11751 14.3525 0.730668 14.0649 0.445451C13.7774 0.160234 13.3873 0 12.9807 0V0Z" fill="#FFFFC7"/>
</svg>
