<svg width="15" height="15" viewBox="0 0 15 15" fill="none" xmlns="http://www.w3.org/2000/svg">
<path d="M0.0761141 14.1947L1.0436 10.6688C0.406103 9.58489 0.0711737 8.35217 0.0732518 7.09736C0.0732518 3.17749 3.27697 0 7.22921 0C11.1814 0 14.3852 3.17749 14.3852 7.09736C14.3852 11.0172 11.1814 14.1947 7.22921 14.1947C5.96459 14.1968 4.72223 13.8648 3.62976 13.233L0.0761141 14.1947ZM4.64662 3.76728C4.55421 3.77297 4.46391 3.79711 4.38114 3.83825C4.30351 3.88185 4.23265 3.93636 4.17075 4.00007C4.08488 4.08027 4.03622 4.14983 3.98398 4.21725C3.71951 4.55863 3.57725 4.97768 3.57967 5.40819C3.5811 5.75596 3.6727 6.09451 3.81582 6.41105C4.1085 7.05123 4.59009 7.72903 5.22626 8.35714C5.3794 8.50832 5.52895 8.6602 5.68996 8.80144C6.47954 9.49092 7.42046 9.98815 8.43785 10.2536L8.84503 10.3153C8.97741 10.3224 9.1098 10.3125 9.2429 10.3061C9.45131 10.2954 9.6548 10.2394 9.83899 10.1421C9.9327 10.0943 10.0242 10.0422 10.1131 9.98599C10.1131 9.98599 10.1438 9.96612 10.2025 9.92211C10.2991 9.85114 10.3585 9.80075 10.4387 9.71771C10.4981 9.65667 10.5496 9.58499 10.5889 9.50337C10.6447 9.38768 10.7006 9.16695 10.7235 8.98313C10.7406 8.8426 10.7356 8.76595 10.7335 8.7184C10.7306 8.64246 10.6669 8.56368 10.5975 8.53032L10.181 8.34508C10.181 8.34508 9.55847 8.07609 9.17849 7.90433C9.13843 7.88701 9.09549 7.87715 9.05183 7.87523C9.00287 7.87025 8.9534 7.87571 8.90675 7.89126C8.86009 7.9068 8.81733 7.93207 8.78134 7.96537V7.96395C8.77776 7.96395 8.72981 8.00441 8.21244 8.62614C8.18274 8.66571 8.14184 8.69562 8.09494 8.71205C8.04804 8.72848 7.99727 8.73069 7.9491 8.7184C7.90247 8.70604 7.8568 8.69038 7.81242 8.67156C7.72369 8.63465 7.69292 8.62046 7.63209 8.5942L7.62851 8.59278C7.21913 8.4155 6.84009 8.17605 6.50503 7.88304C6.41486 7.80497 6.33114 7.7198 6.24527 7.63747C5.96373 7.37007 5.71838 7.06756 5.51536 6.73753L5.47314 6.6701C5.44281 6.6248 5.41829 6.57592 5.40015 6.52461C5.37295 6.42027 5.4438 6.33653 5.4438 6.33653C5.4438 6.33653 5.61769 6.14774 5.69855 6.04553C5.76588 5.96059 5.8287 5.87223 5.88675 5.7808C5.97119 5.64595 5.99767 5.50755 5.9533 5.40038C5.75294 4.91492 5.54541 4.43159 5.33217 3.95181C5.28995 3.85671 5.16472 3.78857 5.05094 3.77509C5.01229 3.77083 4.97365 3.76657 4.93501 3.76373C4.83891 3.759 4.74261 3.75994 4.64662 3.76657V3.76728Z" fill="#FFFFC7"/>
</svg>
