<svg width="15" height="16" viewBox="0 0 15 16" fill="none" xmlns="http://www.w3.org/2000/svg">
<path d="M0.0761141 15.1674L1.0436 11.6123C0.406103 10.5195 0.0711737 9.27659 0.0732518 8.01143C0.0732518 4.05919 3.27697 0.855469 7.22921 0.855469C11.1814 0.855469 14.3852 4.05919 14.3852 8.01143C14.3852 11.9637 11.1814 15.1674 7.22921 15.1674C5.96459 15.1694 4.72223 14.8348 3.62976 14.1978L0.0761141 15.1674ZM4.64662 4.65385C4.55421 4.65959 4.46391 4.68393 4.38114 4.72541C4.30351 4.76937 4.23265 4.82432 4.17075 4.88857C4.08488 4.96943 4.03622 5.03956 3.98398 5.10754C3.71951 5.45174 3.57725 5.87424 3.57967 6.30831C3.5811 6.65895 3.6727 7.00029 3.81582 7.31945C4.1085 7.96491 4.59009 8.64831 5.22626 9.28161C5.3794 9.43403 5.52895 9.58717 5.68996 9.72957C6.47954 10.4247 7.42046 10.9261 8.43785 11.1937L8.84503 11.2559C8.97741 11.2631 9.1098 11.2531 9.2429 11.2466C9.45131 11.2359 9.6548 11.1794 9.83899 11.0813C9.9327 11.0331 10.0242 10.9805 10.1131 10.9239C10.1131 10.9239 10.1438 10.9039 10.2025 10.8595C10.2991 10.7879 10.3585 10.7371 10.4387 10.6534C10.4981 10.5919 10.5496 10.5196 10.5889 10.4373C10.6447 10.3207 10.7006 10.0981 10.7235 9.91277C10.7406 9.77108 10.7356 9.69379 10.7335 9.64585C10.7306 9.56928 10.6669 9.48985 10.5975 9.45622L10.181 9.26944C10.181 9.26944 9.55847 8.99823 9.17849 8.82506C9.13843 8.8076 9.09549 8.79765 9.05183 8.79572C9.00287 8.79069 8.9534 8.7962 8.90675 8.81188C8.86009 8.82755 8.81733 8.85303 8.78134 8.8866V8.88517C8.77776 8.88517 8.72981 8.92596 8.21244 9.55282C8.18274 9.59272 8.14184 9.62288 8.09494 9.63945C8.04804 9.65602 7.99727 9.65824 7.9491 9.64585C7.90247 9.63338 7.8568 9.6176 7.81242 9.59862C7.72369 9.56141 7.69292 9.5471 7.63209 9.52062L7.62851 9.51919C7.21913 9.34045 6.84009 9.09902 6.50503 8.80359C6.41486 8.72488 6.33114 8.639 6.24527 8.556C5.96373 8.28639 5.71838 7.98138 5.51536 7.64862L5.47314 7.58064C5.44281 7.53496 5.41829 7.48568 5.40015 7.43394C5.37295 7.32875 5.4438 7.24431 5.4438 7.24431C5.4438 7.24431 5.61769 7.05396 5.69855 6.95091C5.76588 6.86527 5.8287 6.77618 5.88675 6.684C5.97119 6.54803 5.99767 6.40849 5.9533 6.30044C5.75294 5.81097 5.54541 5.32365 5.33217 4.83991C5.28995 4.74402 5.16472 4.67532 5.05094 4.66172C5.01229 4.65743 4.97365 4.65314 4.93501 4.65027C4.83891 4.6455 4.74261 4.64646 4.64662 4.65314V4.65385Z" fill="#FFFFC7"/>
</svg>
