<svg width="15" height="15" viewBox="0 0 15 15" fill="none" xmlns="http://www.w3.org/2000/svg">
<path d="M0.0761141 14.369L1.0436 10.7997C0.406103 9.70256 0.0711737 8.45471 0.0732518 7.1845C0.0732518 3.2165 3.27697 0 7.22921 0C11.1814 0 14.3852 3.2165 14.3852 7.1845C14.3852 11.1525 11.1814 14.369 7.22921 14.369C5.96459 14.371 4.72223 14.035 3.62976 13.3955L0.0761141 14.369ZM4.64662 3.81353C4.55421 3.81929 4.46391 3.84373 4.38114 3.88538C4.30351 3.92951 4.23265 3.98468 4.17075 4.04918C4.08488 4.13037 4.03622 4.20077 3.98398 4.26903C3.71951 4.6146 3.57725 5.03879 3.57967 5.47459C3.5811 5.82663 3.6727 6.16933 3.81582 6.48976C4.1085 7.1378 4.59009 7.82392 5.22626 8.45974C5.3794 8.61277 5.52895 8.76652 5.68996 8.90949C6.47954 9.60744 7.42046 10.1108 8.43785 10.3794L8.84503 10.4419C8.97741 10.4491 9.1098 10.4391 9.2429 10.4326C9.45131 10.4218 9.6548 10.3651 9.83899 10.2666C9.9327 10.2182 10.0242 10.1654 10.1131 10.1086C10.1131 10.1086 10.1438 10.0885 10.2025 10.0439C10.2991 9.97208 10.3585 9.92107 10.4387 9.83701C10.4981 9.77523 10.5496 9.70266 10.5889 9.62004C10.6447 9.50293 10.7006 9.27949 10.7235 9.09342C10.7406 8.95116 10.7356 8.87357 10.7335 8.82544C10.7306 8.74856 10.6669 8.66881 10.5975 8.63505L10.181 8.44753C10.181 8.44753 9.55847 8.17524 9.17849 8.00137C9.13843 7.98384 9.09549 7.97385 9.05183 7.97192C9.00287 7.96687 8.9534 7.9724 8.90675 7.98814C8.86009 8.00387 8.81733 8.02945 8.78134 8.06316V8.06172C8.77776 8.06172 8.72981 8.10267 8.21244 8.73204C8.18274 8.7721 8.14184 8.80238 8.09494 8.81901C8.04804 8.83564 7.99727 8.83788 7.9491 8.82544C7.90247 8.81292 7.8568 8.79707 7.81242 8.77802C7.72369 8.74066 7.69292 8.72629 7.63209 8.69971L7.62851 8.69827C7.21913 8.51882 6.84009 8.27643 6.50503 7.97982C6.41486 7.90079 6.33114 7.81458 6.24527 7.73124C5.96373 7.46055 5.71838 7.15433 5.51536 6.82024L5.47314 6.75199C5.44281 6.70613 5.41829 6.65665 5.40015 6.60471C5.37295 6.49909 5.4438 6.41432 5.4438 6.41432C5.4438 6.41432 5.61769 6.22321 5.69855 6.11975C5.76588 6.03377 5.8287 5.94432 5.88675 5.85177C5.97119 5.71527 5.99767 5.57517 5.9533 5.46668C5.75294 4.97526 5.54541 4.486 5.33217 4.00033C5.28995 3.90405 5.16472 3.83508 5.05094 3.82143C5.01229 3.81712 4.97365 3.81281 4.93501 3.80994C4.83891 3.80514 4.74261 3.8061 4.64662 3.81281V3.81353Z" fill="#FFFFC7"/>
</svg>
