<svg width="18" height="14" viewBox="0 0 18 14" fill="none" xmlns="http://www.w3.org/2000/svg">
<path fill-rule="evenodd" clip-rule="evenodd" d="M16.3245 0.82317C16.1009 0.707031 15.8773 0.707031 15.6537 0.707031H2.23624C2.01261 0.707031 1.78899 0.707031 1.56537 0.82317L7.82683 5.93327C8.27408 6.28169 8.94495 6.28169 9.50401 5.93327L16.3245 0.82317ZM0.223624 1.98456C0.111812 2.33297 0 2.68139 0 3.02981V11.1595C0 12.437 1.00631 13.4823 2.23624 13.4823H15.6537C16.8836 13.4823 17.8899 12.437 17.8899 11.1595V3.02981C17.8899 2.68139 17.7781 2.33297 17.6663 1.98456L10.5103 7.32694C9.3922 8.13991 7.82683 8.13991 6.82053 7.32694L0.223624 1.98456Z" fill="#FFFFC7"/>
</svg>
