<svg width="15" height="15" viewBox="0 0 15 15" fill="none" xmlns="http://www.w3.org/2000/svg">
<path d="M12.9807 0H1.73557C1.32888 0 0.938849 0.162201 0.651277 0.45092C0.363705 0.739639 0.202148 1.13123 0.202148 1.53954L0.202148 12.8295C0.202148 13.2378 0.363705 13.6294 0.651277 13.9181C0.938849 14.2068 1.32888 14.369 1.73557 14.369H6.12019V9.48386H4.10758V7.1845H6.12019V5.432C6.12019 3.43862 7.30221 2.33753 9.1126 2.33753C9.97962 2.33753 10.8863 2.49277 10.8863 2.49277V4.44926H9.8873C8.90303 4.44926 8.59603 5.06251 8.59603 5.69147V7.1845H10.7933L10.4419 9.48386H8.59603V14.369H12.9807C13.3873 14.369 13.7774 14.2068 14.0649 13.9181C14.3525 13.6294 14.5141 13.2378 14.5141 12.8295V1.53954C14.5141 1.13123 14.3525 0.739639 14.0649 0.45092C13.7774 0.162201 13.3873 0 12.9807 0V0Z" fill="#FFFFC7"/>
</svg>
