<svg width="18" height="14" viewBox="0 0 18 14" fill="none" xmlns="http://www.w3.org/2000/svg">
<path fill-rule="evenodd" clip-rule="evenodd" d="M16.3245 0.683504C16.1009 0.566406 15.8773 0.566406 15.6537 0.566406H2.23624C2.01261 0.566406 1.78899 0.566406 1.56537 0.683504L7.82683 5.8358C8.27408 6.18709 8.94495 6.18709 9.50401 5.8358L16.3245 0.683504ZM0.223624 1.85448C0.111812 2.20577 0 2.55707 0 2.90836V11.1052C0 12.3933 1.00631 13.4471 2.23624 13.4471H15.6537C16.8836 13.4471 17.8899 12.3933 17.8899 11.1052V2.90836C17.8899 2.55707 17.7781 2.20577 17.6663 1.85448L10.5103 7.24097C9.3922 8.06065 7.82683 8.06065 6.82053 7.24097L0.223624 1.85448Z" fill="#FFFFC7"/>
</svg>
