<svg width="15" height="16" viewBox="0 0 15 16" fill="none" xmlns="http://www.w3.org/2000/svg">
<path d="M12.9807 0.855469H1.73557C1.32888 0.855469 0.938849 1.01703 0.651277 1.3046C0.363705 1.59217 0.202148 1.9822 0.202148 2.38889L0.202148 13.634C0.202148 14.0407 0.363705 14.4307 0.651277 14.7183C0.938849 15.0058 1.32888 15.1674 1.73557 15.1674H6.12019V10.3017H4.10758V8.01143H6.12019V6.26589C6.12019 4.28043 7.30221 3.18371 9.1126 3.18371C9.97962 3.18371 10.8863 3.33833 10.8863 3.33833V5.28705H9.8873C8.90303 5.28705 8.59603 5.89787 8.59603 6.52433V8.01143H10.7933L10.4419 10.3017H8.59603V15.1674H12.9807C13.3873 15.1674 13.7774 15.0058 14.0649 14.7183C14.3525 14.4307 14.5141 14.0407 14.5141 13.634V2.38889C14.5141 1.9822 14.3525 1.59217 14.0649 1.3046C13.7774 1.01703 13.3873 0.855469 12.9807 0.855469V0.855469Z" fill="#FFFFC7"/>
</svg>
