<svg width="14" height="20" viewBox="0 0 14 20" fill="none" xmlns="http://www.w3.org/2000/svg">
<path d="M6.99967 9.54036C6.39189 9.54036 5.80899 9.29892 5.37922 8.86915C4.94945 8.43938 4.70801 7.85649 4.70801 7.2487C4.70801 6.64091 4.94945 6.05802 5.37922 5.62824C5.80899 5.19847 6.39189 4.95703 6.99967 4.95703C7.60746 4.95703 8.19036 5.19847 8.62013 5.62824C9.0499 6.05802 9.29134 6.64091 9.29134 7.2487C9.29134 7.54964 9.23207 7.84764 9.1169 8.12568C9.00173 8.40372 8.83293 8.65635 8.62013 8.86915C8.40733 9.08195 8.1547 9.25076 7.87666 9.36592C7.59862 9.48109 7.30062 9.54036 6.99967 9.54036M6.99967 0.832031C5.29787 0.832031 3.66576 1.50807 2.46241 2.71143C1.25905 3.91479 0.583008 5.54689 0.583008 7.2487C0.583008 12.0612 6.99967 19.1654 6.99967 19.1654C6.99967 19.1654 13.4163 12.0612 13.4163 7.2487C13.4163 5.54689 12.7403 3.91479 11.5369 2.71143C10.3336 1.50807 8.70148 0.832031 6.99967 0.832031V0.832031Z" fill="#FFFFC7"/>
</svg>
