<svg width="15" height="15" viewBox="0 0 15 15" fill="none" xmlns="http://www.w3.org/2000/svg">
<path d="M13.1719 0C13.5937 0 13.9981 0.168208 14.2964 0.46762C14.5946 0.767033 14.7621 1.17312 14.7621 1.59656V12.7724C14.7621 13.1959 14.5946 13.602 14.2964 13.9014C13.9981 14.2008 13.5937 14.369 13.1719 14.369H2.04041C1.61866 14.369 1.21418 14.2008 0.915958 13.9014C0.617735 13.602 0.450195 13.1959 0.450195 12.7724V1.59656C0.450195 1.17312 0.617735 0.767033 0.915958 0.46762C1.21418 0.168208 1.61866 0 2.04041 0H13.1719ZM12.7744 12.3733V8.14243C12.7744 7.45224 12.5013 6.79031 12.0152 6.30227C11.5291 5.81423 10.8698 5.54005 10.1823 5.54005C9.50646 5.54005 8.71931 5.95515 8.33766 6.57781V5.69172H6.11931V12.3733H8.33766V8.4378C8.33766 7.82312 8.83062 7.32021 9.44286 7.32021C9.73808 7.32021 10.0212 7.43795 10.23 7.64754C10.4387 7.85713 10.556 8.14139 10.556 8.4378V12.3733H12.7744ZM3.53521 4.43843C3.88948 4.43843 4.22924 4.29713 4.47975 4.04562C4.73026 3.79412 4.87099 3.453 4.87099 3.09732C4.87099 2.35492 4.27466 1.74823 3.53521 1.74823C3.17883 1.74823 2.83705 1.89036 2.58505 2.14337C2.33305 2.39637 2.19148 2.73952 2.19148 3.09732C2.19148 3.83972 2.79576 4.43843 3.53521 4.43843M4.64041 12.3733V5.69172H2.43796V12.3733H4.64041V12.3733Z" fill="#FFFFC7"/>
</svg>
